%TF.GenerationSoftware,KiCad,Pcbnew,9.0.6*%
%TF.CreationDate,2025-12-11T22:01:46+06:00*%
%TF.ProjectId,low power audio amp,6c6f7720-706f-4776-9572-20617564696f,rev?*%
%TF.SameCoordinates,Original*%
%TF.FileFunction,Copper,L1,Top*%
%TF.FilePolarity,Positive*%
%FSLAX46Y46*%
G04 Gerber Fmt 4.6, Leading zero omitted, Abs format (unit mm)*
G04 Created by KiCad (PCBNEW 9.0.6) date 2025-12-11 22:01:46*
%MOMM*%
%LPD*%
G01*
G04 APERTURE LIST*
G04 Aperture macros list*
%AMRoundRect*
0 Rectangle with rounded corners*
0 $1 Rounding radius*
0 $2 $3 $4 $5 $6 $7 $8 $9 X,Y pos of 4 corners*
0 Add a 4 corners polygon primitive as box body*
4,1,4,$2,$3,$4,$5,$6,$7,$8,$9,$2,$3,0*
0 Add four circle primitives for the rounded corners*
1,1,$1+$1,$2,$3*
1,1,$1+$1,$4,$5*
1,1,$1+$1,$6,$7*
1,1,$1+$1,$8,$9*
0 Add four rect primitives between the rounded corners*
20,1,$1+$1,$2,$3,$4,$5,0*
20,1,$1+$1,$4,$5,$6,$7,0*
20,1,$1+$1,$6,$7,$8,$9,0*
20,1,$1+$1,$8,$9,$2,$3,0*%
G04 Aperture macros list end*
%TA.AperFunction,SMDPad,CuDef*%
%ADD10RoundRect,0.190500X-0.444500X1.079500X-0.444500X-1.079500X0.444500X-1.079500X0.444500X1.079500X0*%
%TD*%
%TA.AperFunction,ComponentPad*%
%ADD11C,1.727200*%
%TD*%
%TA.AperFunction,ComponentPad*%
%ADD12RoundRect,0.250000X-0.550000X-0.550000X0.550000X-0.550000X0.550000X0.550000X-0.550000X0.550000X0*%
%TD*%
%TA.AperFunction,ComponentPad*%
%ADD13C,1.600000*%
%TD*%
%TA.AperFunction,SMDPad,CuDef*%
%ADD14RoundRect,0.190500X0.444500X-0.762000X0.444500X0.762000X-0.444500X0.762000X-0.444500X-0.762000X0*%
%TD*%
%TA.AperFunction,ComponentPad*%
%ADD15RoundRect,0.250000X-0.750000X0.750000X-0.750000X-0.750000X0.750000X-0.750000X0.750000X0.750000X0*%
%TD*%
%TA.AperFunction,ComponentPad*%
%ADD16C,2.000000*%
%TD*%
%TA.AperFunction,SMDPad,CuDef*%
%ADD17RoundRect,0.150000X0.350000X-0.350000X0.350000X0.350000X-0.350000X0.350000X-0.350000X-0.350000X0*%
%TD*%
%TA.AperFunction,ComponentPad*%
%ADD18C,1.400000*%
%TD*%
%TA.AperFunction,ViaPad*%
%ADD19C,0.600000*%
%TD*%
%TA.AperFunction,Conductor*%
%ADD20C,0.200000*%
%TD*%
G04 APERTURE END LIST*
D10*
%TO.P,U3,1,+9V*%
%TO.N,+9V*%
X58420000Y-58357000D03*
%TO.P,U3,2,GND*%
%TO.N,GND*%
X58420000Y-62357000D03*
%TD*%
D11*
%TO.P,U1,1*%
%TO.N,unconnected-(U1-Pad1)*%
X66675000Y-57404000D03*
%TO.P,U1,2*%
%TO.N,Net-(R1-Pad2)*%
X69215000Y-57404000D03*
%TO.P,U1,3*%
%TO.N,GND*%
X71755000Y-57404000D03*
%TO.P,U1,4*%
X74295000Y-57404000D03*
%TO.P,U1,5*%
%TO.N,Net-(C3-Pad1)*%
X74295000Y-49784000D03*
%TO.P,U1,6*%
%TO.N,+9V*%
X71755000Y-49784000D03*
%TO.P,U1,7*%
%TO.N,Net-(C1-Pad1)*%
X69215000Y-49784000D03*
%TO.P,U1,8*%
%TO.N,unconnected-(U1-Pad8)*%
X66675000Y-49784000D03*
%TD*%
D12*
%TO.P,C3,1*%
%TO.N,Net-(C3-Pad1)*%
X77407888Y-76527000D03*
D13*
%TO.P,C3,2*%
%TO.N,GND*%
X79907888Y-76527000D03*
%TD*%
D14*
%TO.P,U2,1,stereo_LEFT*%
%TO.N,Net-(U2-stereo_LEFT)*%
X62230000Y-82232000D03*
%TO.P,U2,2,stereo_RIGHT*%
%TO.N,Net-(U2-stereo_RIGHT)*%
X62230000Y-78232000D03*
%TD*%
D12*
%TO.P,C2,1*%
%TO.N,+9V*%
X77657888Y-69977000D03*
D13*
%TO.P,C2,2*%
%TO.N,GND*%
X79657888Y-69977000D03*
%TD*%
D15*
%TO.P,C4,1*%
%TO.N,Net-(C3-Pad1)*%
X66548000Y-62148323D03*
D16*
%TO.P,C4,2*%
%TO.N,Net-(C4-Pad2)*%
X66548000Y-67148323D03*
%TD*%
D17*
%TO.P,LS1,1,1*%
%TO.N,Net-(C4-Pad2)*%
X62203000Y-73993000D03*
%TO.P,LS1,2,2*%
%TO.N,GND*%
X62203000Y-71993000D03*
%TD*%
D18*
%TO.P,R2,1*%
%TO.N,Net-(R1-Pad2)*%
X72136000Y-69056000D03*
%TO.P,R2,2*%
%TO.N,Net-(U2-stereo_RIGHT)*%
X72136000Y-76676000D03*
%TD*%
%TO.P,R1,1*%
%TO.N,Net-(U2-stereo_LEFT)*%
X72136000Y-86233000D03*
%TO.P,R1,2*%
%TO.N,Net-(R1-Pad2)*%
X72136000Y-78613000D03*
%TD*%
D12*
%TO.P,C1,1*%
%TO.N,Net-(C1-Pad1)*%
X77657888Y-63427000D03*
D13*
%TO.P,C1,2*%
%TO.N,GND*%
X79657888Y-63427000D03*
%TD*%
D19*
%TO.N,GND*%
X70866000Y-60579000D03*
%TO.N,+9V*%
X74128240Y-60770686D03*
X68580000Y-52578000D03*
X72898000Y-52070000D03*
%TO.N,Net-(C3-Pad1)*%
X71755000Y-59095470D03*
X70441735Y-59479265D03*
%TD*%
D20*
%TO.N,GND*%
X79657888Y-63427000D02*
X74295000Y-58064112D01*
X62203000Y-71993000D02*
X62203000Y-69242000D01*
X58420000Y-65459000D02*
X62203000Y-69242000D01*
X74295000Y-58064112D02*
X74295000Y-57404000D01*
X79907888Y-70227000D02*
X79657888Y-69977000D01*
X62203000Y-69242000D02*
X70866000Y-60579000D01*
X79907888Y-76527000D02*
X79907888Y-70227000D01*
X58420000Y-62357000D02*
X58420000Y-65459000D01*
X79657888Y-63427000D02*
X79657888Y-69977000D01*
%TO.N,Net-(C4-Pad2)*%
X62203000Y-73993000D02*
X66548000Y-69648000D01*
X66548000Y-69648000D02*
X66548000Y-67148323D01*
%TO.N,Net-(C1-Pad1)*%
X72919600Y-58688712D02*
X72919600Y-53488600D01*
X72919600Y-53488600D02*
X69215000Y-49784000D01*
X77657888Y-63427000D02*
X72919600Y-58688712D01*
%TO.N,+9V*%
X74128240Y-66447352D02*
X74128240Y-60770686D01*
X72898000Y-52070000D02*
X72644000Y-51816000D01*
X72644000Y-50673000D02*
X71755000Y-49784000D01*
X72644000Y-51816000D02*
X72644000Y-50673000D01*
X64199000Y-52578000D02*
X68580000Y-52578000D01*
X58420000Y-58357000D02*
X64199000Y-52578000D01*
X77657888Y-69977000D02*
X74128240Y-66447352D01*
%TO.N,Net-(C3-Pad1)*%
X73538000Y-72657112D02*
X73538000Y-60878470D01*
X73538000Y-60878470D02*
X71755000Y-59095470D01*
X77407888Y-76527000D02*
X73538000Y-72657112D01*
X67772677Y-62148323D02*
X70441735Y-59479265D01*
X66548000Y-62148323D02*
X67772677Y-62148323D01*
%TO.N,Net-(R1-Pad2)*%
X73137000Y-70057000D02*
X72136000Y-69056000D01*
X72136000Y-78613000D02*
X73137000Y-77612000D01*
X72136000Y-60325000D02*
X69215000Y-57404000D01*
X69215000Y-57912000D02*
X69215000Y-57404000D01*
X72136000Y-69056000D02*
X72136000Y-60325000D01*
X73137000Y-77612000D02*
X73137000Y-70057000D01*
%TO.N,Net-(U2-stereo_LEFT)*%
X66231000Y-86233000D02*
X72136000Y-86233000D01*
X62230000Y-82232000D02*
X66231000Y-86233000D01*
%TO.N,Net-(U2-stereo_RIGHT)*%
X62230000Y-78232000D02*
X63786000Y-76676000D01*
X63786000Y-76676000D02*
X72136000Y-76676000D01*
%TD*%
M02*
